<svg width="246" height="101" viewBox="0 0 246 101" fill="none" xmlns="http://www.w3.org/2000/svg">
<g clip-path="url(#clip0_1_255)">
<path d="M177.265 44.618C170.588 44.618 165.341 50.3632 165.493 56.7154C164.994 56.065 164.366 55.5014 163.542 55.0244C161.699 53.9621 159.444 53.5719 157.428 53.2683C155.152 52.9215 153.374 52.6179 153.374 51.4689C153.374 49.7562 155.303 49.3876 156.626 49.3876C157.732 49.3876 160.355 49.7995 160.355 51.2521H166.035C166.035 50.1247 165.818 48.2819 163.65 46.656C161.894 45.3768 159.509 44.7048 156.604 44.7048C152.051 44.7048 148.236 47.2196 147.39 50.5583C146.046 47.3064 143.228 44.6831 137.548 44.6831C133.949 44.6831 131.694 47.1329 131.694 47.1546V45.2684H125.06V52.4228C123.607 48.0435 119.878 44.618 114.849 44.618C108.171 44.618 102.903 50.3632 103.055 56.7154C102.556 56.065 101.906 55.5014 101.104 55.0244C99.2609 53.9621 97.0061 53.5719 94.9899 53.2683C92.7135 52.9215 90.9358 52.6179 90.9358 51.4689C90.9358 49.7562 92.8653 49.3876 94.1878 49.3876C95.2934 49.3876 97.895 49.7995 97.895 51.2521H103.51C103.51 50.1247 103.293 48.2819 101.125 46.656C99.3693 45.3768 96.9845 44.7048 94.0794 44.7048C88.8979 44.7048 84.6703 47.9568 84.6703 51.9892C84.6703 53.9621 85.7326 55.5447 87.2719 56.4336C88.8979 57.4526 90.8274 57.9295 92.6051 58.1463C94.4913 58.4065 98.0034 58.9051 98.0034 61.0081C98.0034 62.6774 95.5753 63.3061 94.3178 63.3061C92.4317 63.3061 90.5239 62.2438 90.5239 60.2926H84.28C84.28 61.7452 84.6703 63.4362 86.7515 65.5609C87.5971 66.4064 88.7244 67.0134 89.9168 67.447C91.2393 67.9673 92.7352 68.2275 94.3178 68.2275C95.6403 68.2275 96.9194 68.0107 98.1335 67.6421C99.2825 67.2952 100.367 66.7966 101.255 66.1029C102.188 65.4525 102.925 64.6937 103.445 63.8481C103.857 63.1327 104.117 62.4173 104.204 61.6585C106.133 65.5392 110.123 68.1625 114.719 68.1625C118.946 68.1625 121.895 66.0161 124.345 63.1977L119.553 60.2276C118.187 61.7235 116.518 62.5257 114.719 62.5257C112.16 62.5257 109.927 60.943 109.039 58.6666H125.017V67.382H131.651V56.3686C131.802 53.4635 133.862 51.1654 136.68 51.1654C140.626 51.1654 141.84 53.0082 141.84 56.4986V67.382H148.474V64.6069C148.799 64.9105 148.995 65.2357 149.32 65.5609C150.165 66.4064 151.271 67.0134 152.463 67.447C153.786 67.9673 155.282 68.2058 156.864 68.2058C158.187 68.2058 159.466 67.989 160.68 67.6205C161.829 67.2736 162.891 66.7533 163.802 66.0812C164.734 65.4308 165.471 64.672 165.992 63.8265C166.404 63.111 166.664 62.3956 166.75 61.6368C168.68 65.5175 172.669 68.1408 177.265 68.1408C181.493 68.1408 184.441 65.9945 186.891 63.1761L182.1 60.2276C180.734 61.7235 179.065 62.5257 177.265 62.5257C174.685 62.5257 172.474 60.943 171.585 58.6666H187.953C189.059 51.7291 184.571 44.618 177.265 44.618ZM109.039 54.4607C109.039 52.206 111.64 50.2331 114.762 50.2331C117.277 50.2331 119.944 52.0326 119.944 54.4607H109.039ZM156.821 63.2845C154.935 63.2845 153.005 62.2221 153.005 60.271H148.431V56.4986C148.431 56.0867 148.409 55.6748 148.366 55.2412C148.756 55.6965 149.233 56.1084 149.753 56.4119C151.379 57.4309 153.287 57.9078 155.087 58.1246C156.973 58.3848 160.463 58.8834 160.463 60.9864C160.507 62.6557 158.057 63.2845 156.821 63.2845ZM171.52 54.4607C171.52 52.206 174.122 50.2331 177.244 50.2331C179.758 50.2331 182.425 52.0326 182.425 54.4607H171.52Z" fill="#666C75"/>
<path d="M78.5996 47.957C79.5317 48.9109 80.2904 50.038 80.789 51.252C83.8025 57.9726 79.8356 65.9939 72.7031 67.7285C69.2777 68.5524 65.8301 67.7504 63.1201 65.8643L67.2832 61.0508C67.8468 61.3543 68.4539 61.5715 69.1259 61.6582C72.1393 62.2216 75.0441 59.8153 75.456 56.8887C75.6728 55.4145 75.239 53.9623 74.3935 52.835L78.5996 47.957ZM79.2929 36.3359C79.2572 36.3772 73.8253 42.6503 72.3125 44.4873C73.7215 44.7691 75.109 45.3329 76.3447 46.1133L72.0957 51.0352C71.532 50.7967 70.9246 50.6449 70.2959 50.6016C67.8462 50.45 65.6134 51.7939 64.7246 54.0918C64.0525 55.7828 64.3125 57.6043 65.1797 59.0352L60.9521 63.9346C59.4562 62.2219 58.416 60.0754 58.0908 57.6689C57.7223 54.7207 58.4805 51.3605 60.3447 49.0625C61.7972 47.2631 63.2721 45.4635 64.7246 43.6641C67.1744 40.6506 74.459 32 74.459 32L79.2929 36.3359Z" fill="#666C75"/>
</g>
<defs>
<clipPath id="clip0_1_255">
<rect width="245.227" height="100.093" fill="white" transform="translate(0.0405273 0.323914)"/>
</clipPath>
</defs>
</svg>
