<svg width="81" height="81" viewBox="0 0 81 81" fill="none" xmlns="http://www.w3.org/2000/svg">
<path fill-rule="evenodd" clip-rule="evenodd" d="M22.6066 18.0715C22.6066 8.25308 30.566 0.293701 40.3844 0.293701C50.2028 0.293701 58.1622 8.25308 58.1622 18.0715V22.5159H62.6066C72.425 22.5159 80.3844 30.4753 80.3844 40.2937C80.3844 50.1121 72.425 58.0715 62.6066 58.0715H58.1622V62.5159C58.1622 72.3343 50.2028 80.2937 40.3844 80.2937C30.566 80.2937 22.6066 72.3343 22.6066 62.5159V58.0715H18.1622C8.34378 58.0715 0.384399 50.1121 0.384399 40.2937C0.384399 30.4753 8.34378 22.5159 18.1622 22.5159H22.6066V18.0715ZM21.4955 40.8493C28.6837 42.5507 38.2606 52.9548 40.3844 61.4048C42.5082 52.9548 52.0851 42.5507 59.2733 40.8493C52.0851 39.1478 42.5082 28.7438 40.3844 20.2937C38.2606 28.7438 28.6837 39.1478 21.4955 40.8493Z" fill="url(#paint0_radial_1_390)"/>
<defs>
<radialGradient id="paint0_radial_1_390" cx="0" cy="0" r="1" gradientUnits="userSpaceOnUse" gradientTransform="translate(40.3844 111.668) rotate(-126.238) scale(167.975 166.704)">
<stop offset="0.19" stop-color="#0ADC7D"/>
<stop offset="0.48" stop-color="#4E02F1"/>
<stop offset="0.734139" stop-color="#D01EDA"/>
<stop offset="1" stop-opacity="0"/>
</radialGradient>
</defs>
</svg>
