<svg width="247" height="101" viewBox="0 0 247 101" fill="none" xmlns="http://www.w3.org/2000/svg">
<path d="M74.5667 52.8984H87.4789L87.1121 67.8956H84.0668L83.6204 63.0587C81.9425 66.7417 78.7485 68.5807 74.0382 68.5807C69.6793 68.5807 66.2082 67.1085 63.6221 64.1667C61.0361 61.2248 59.7456 57.6691 59.7456 53.5046C59.7456 50.7895 60.3075 48.3112 61.4312 46.0672C62.5549 43.8233 64.2584 41.9894 66.5468 40.563C68.8327 39.1392 71.5214 38.426 74.6077 38.426C78.0737 38.426 80.8753 39.3073 83.0124 41.0673C85.1495 42.8274 86.599 45.0917 87.3584 47.8603H82.4043C81.2396 44.3123 78.6407 42.5395 74.6077 42.5395C71.4675 42.5395 69.0251 43.594 67.278 45.703C65.5335 47.812 64.6586 50.4125 64.6586 53.5046C64.6586 56.5968 65.5181 59.1948 67.237 61.3063C68.9559 63.4153 71.3315 64.4723 74.364 64.4723C76.8012 64.4723 78.8511 63.7948 80.5161 62.4372C82.1811 61.0796 83.1201 59.1515 83.3382 56.6528L74.5667 56.6936V52.8984Z" fill="#666C75"/>
<path d="M108.104 65.417C106.075 67.447 103.489 68.4607 100.349 68.4607C97.2084 68.4607 94.6224 67.447 92.593 65.417C90.5637 63.3895 89.5478 60.7482 89.5478 57.4956C89.5478 54.243 90.5637 51.5966 92.593 49.5539C94.6224 47.5111 97.2084 46.4897 100.349 46.4897C103.489 46.4897 106.075 47.5111 108.104 49.5539C110.134 51.5966 111.149 54.243 111.149 57.4956C111.149 60.7482 110.134 63.3895 108.104 65.417ZM95.9821 62.656C97.1314 64.0008 98.5861 64.6707 100.346 64.6707C102.106 64.6707 103.561 63.9983 104.71 62.656C105.859 61.3111 106.437 59.5918 106.437 57.4956C106.437 55.3994 105.862 53.6801 104.71 52.3353C103.558 50.9904 102.103 50.3205 100.346 50.3205C98.6143 50.3205 97.1648 50.993 96 52.3353C94.8353 53.6801 94.2529 55.3994 94.2529 57.4956C94.2529 59.5918 94.8302 61.3137 95.9821 62.656Z" fill="#666C75"/>
<path d="M113.337 39.1102H118.047V67.8946H113.337V39.1102Z" fill="#666C75"/>
<path d="M136.663 39.1102H141.535V67.8946H136.663V64.1046H136.622C136.16 65.4214 135.35 66.4835 134.185 67.2884C133.02 68.0958 131.573 68.4982 129.839 68.4982C127.05 68.4982 124.762 67.4641 122.976 65.3934C121.19 63.3252 120.295 60.6635 120.295 57.4109C120.295 54.1863 121.18 51.5603 122.956 49.5303C124.728 47.5003 127.022 46.4865 129.839 46.4865C131.545 46.4865 133.007 46.9093 134.223 47.7575C135.442 48.6031 136.253 49.6321 136.661 50.842V39.1102H136.663ZM131.019 64.6293C132.994 64.6293 134.485 63.9645 135.486 62.6349C136.486 61.3053 136.989 59.5657 136.989 57.4134V57.1715C136.935 55.1567 136.373 53.5088 135.303 52.2327C134.234 50.9566 132.807 50.3173 131.019 50.3173C129.205 50.3173 127.751 50.9974 126.655 52.3524C125.56 53.71 125.011 55.3962 125.011 57.4109C125.011 59.4816 125.552 61.2009 126.634 62.5712C127.717 63.9441 129.177 64.6293 131.019 64.6293Z" fill="#666C75"/>
<path d="M164.153 61.1634C163.666 63.5016 162.575 65.3024 160.885 66.5657C159.194 67.829 157.075 68.4607 154.53 68.4607C151.336 68.4607 148.696 67.447 146.613 65.417C144.527 63.3895 143.485 60.7482 143.485 57.4956C143.485 54.1895 144.527 51.5304 146.613 49.5131C148.696 47.4984 151.336 46.4897 154.53 46.4897C157.1 46.4897 159.232 47.1418 160.926 48.4459C162.616 49.75 163.666 51.4896 164.073 53.6674H159.566C158.727 51.3572 157.021 50.2008 154.45 50.2008C152.636 50.2008 151.128 50.8656 149.922 52.1952C148.716 53.5247 148.116 55.2924 148.116 57.4956C148.116 59.6733 148.719 61.4257 149.922 62.7578C151.125 64.0874 152.636 64.7522 154.45 64.7522C157.185 64.7522 158.917 63.5576 159.648 61.1634H164.153Z" fill="#666C75"/>
<path d="M183.771 63.0992C183.771 65.384 183.907 66.9835 184.177 67.8979H179.384C179.248 67.2 179.182 66.2729 179.182 65.1165V64.5129H179.141C178.707 65.6157 177.948 66.5429 176.867 67.2943C175.785 68.0456 174.322 68.4226 172.483 68.4226C170.21 68.4226 168.409 67.819 167.083 66.6091C165.756 65.3992 165.094 63.9347 165.094 62.2154C165.094 61.4895 165.202 60.8247 165.42 60.2211C165.636 59.6174 165.908 59.1055 166.233 58.6877C166.559 58.2726 166.99 57.8956 167.532 57.5594C168.073 57.2232 168.573 56.9608 169.035 56.7723C169.494 56.5839 170.064 56.4107 170.741 56.2476C171.418 56.0872 171.965 55.9802 172.386 55.9242C172.804 55.8707 173.332 55.7968 173.968 55.7026C174.605 55.6083 175.031 55.5498 175.249 55.5217C176.737 55.2798 177.76 54.997 178.314 54.6761C178.869 54.3526 179.146 53.777 179.146 52.9416C179.146 52.0552 178.786 51.3573 178.071 50.8453C177.352 50.3359 176.36 50.0787 175.087 50.0787C173.922 50.0787 172.976 50.3741 172.244 50.965C171.513 51.556 171.121 52.3761 171.067 53.423H166.477C166.585 51.5407 167.378 49.908 168.853 48.525C170.328 47.1419 172.378 46.4491 175.005 46.4491C180.852 46.4491 183.776 49.3247 183.776 55.076V63.0992H183.771ZM179.264 58.3031V56.1254C178.992 56.7978 178.479 57.3607 177.722 57.8192C176.962 58.2777 175.772 58.6521 174.148 58.9475C172.632 59.2175 171.521 59.5919 170.818 60.0759C170.112 60.5598 169.761 61.245 169.761 62.1314C169.761 62.9643 170.112 63.6494 170.818 64.1868C171.521 64.7243 172.468 64.9943 173.661 64.9943C175.231 64.9943 176.557 64.4237 177.64 63.2801C178.722 62.139 179.264 60.4783 179.264 58.3031Z" fill="#666C75"/>
<path d="M198.132 53.3003C197.97 52.2255 197.509 51.4129 196.752 50.8602C195.992 50.3101 195.1 50.035 194.071 50.035C193.15 50.035 192.352 50.2846 191.675 50.7813C190.997 51.2779 190.659 51.8892 190.659 52.6152C190.659 53.0991 190.787 53.5168 191.044 53.8658C191.3 54.2147 191.747 54.5255 192.383 54.7929C193.019 55.0629 193.601 55.2641 194.13 55.3965C194.658 55.5315 195.49 55.7328 196.626 56.0002C200.875 56.9426 203.001 58.9039 203.001 61.8865C203.001 63.9012 202.163 65.5007 200.485 66.6826C198.807 67.867 196.762 68.4553 194.353 68.4553C191.998 68.4553 189.989 67.8848 188.324 66.7412C186.659 65.6001 185.718 63.8579 185.502 61.5197H190.171C190.577 63.7509 191.998 64.8665 194.435 64.8665C195.518 64.8665 196.431 64.6373 197.175 64.1814C197.919 63.7254 198.291 63.0403 198.291 62.1259C198.291 61.265 197.94 60.6486 197.234 60.2716C196.529 59.8947 195.313 59.505 193.578 59.1025C193.253 59.021 193.009 58.9675 192.847 58.9421C188.352 57.9207 186.108 55.8779 186.108 52.8138C186.108 50.9596 186.893 49.4415 188.463 48.2571C190.033 47.0753 191.929 46.4844 194.148 46.4844C196.503 46.4844 198.437 47.0677 199.954 48.2368C201.47 49.4059 202.35 51.092 202.594 53.2952H198.132V53.3003Z" fill="#666C75"/>
<path d="M215.08 50.6835H210.978V60.7215C210.978 63.1132 211.776 64.3103 213.374 64.3103H214.634V67.8991H212.399C208.338 67.8991 206.309 65.6959 206.309 61.2869V50.6835H203.061V47.054H206.309V42.3775L210.816 40.1208H210.978V47.054H215.08V50.6835Z" fill="#666C75"/>
<path fill-rule="evenodd" clip-rule="evenodd" d="M40.2617 53.5006C40.2617 41.8419 30.7432 32.3918 19 32.3918V29.3787C32.4194 29.3787 43.2967 40.1778 43.2967 53.5006C43.2967 66.8235 32.4194 77.6226 19 77.6226V74.6094C30.7432 74.6094 40.2617 65.1593 40.2617 53.5006Z" fill="#666C75"/>
<path fill-rule="evenodd" clip-rule="evenodd" d="M31.149 53.4995C31.149 46.8381 25.7096 41.4379 19 41.4379V38.4247C27.3858 38.4247 34.184 45.174 34.184 53.4995C34.184 61.8246 27.3862 68.5768 19 68.5768V65.5636C25.7093 65.5636 31.149 60.1612 31.149 53.4995Z" fill="#666C75"/>
</svg>
