<svg width="247" height="101" viewBox="0 0 247 101" fill="none" xmlns="http://www.w3.org/2000/svg">
<path d="M82.3277 53.8406L76.2533 53.8145C76.9051 52.1721 78.1825 50.8686 80.1639 50.8686C81.5716 50.8686 82.3537 51.8332 82.3537 53.1106C82.3537 53.3713 82.3277 53.8406 82.3277 53.8406ZM80.3203 45.6806C73.5421 45.6546 68.4323 51.025 68.4062 58.1682C68.3802 63.0172 71.8475 67.1885 78.8864 67.2145C83.553 67.2406 87.2028 64.5815 87.2028 64.5815L85.4561 59.4196C85.4561 59.4196 82.3277 61.4791 79.3296 61.4791C76.7747 61.4791 75.2887 60.0974 75.3148 57.8032L88.2977 57.8554C88.2977 57.8554 89.0538 55.6916 89.0798 53.8145C89.0798 49.0437 86.1339 45.7067 80.3203 45.6806Z" fill="#666C75"/>
<path d="M105.66 45.7847C102.819 45.7847 99.9509 47.4792 98.7778 49.3041H98.6995C98.6995 49.3041 99.0124 48.3135 99.2209 47.2707L99.4295 46.2279L92.7556 46.2018L88.6886 66.745L95.5972 66.7711L97.396 57.6726C97.9696 54.6746 100.29 52.0154 103.001 52.0154C104.226 52.0154 104.826 52.5368 104.826 53.7882C104.826 54.075 104.774 54.5182 104.696 54.9874L102.349 66.7972L109.258 66.8232L111.813 53.8925C111.969 53.0582 112.1 52.3022 112.1 51.6244C112.126 47.3749 109.206 45.7847 105.66 45.7847Z" fill="#666C75"/>
<path d="M123.049 61.6616C121.042 61.6616 119.816 60.2538 119.816 58.0118C119.842 53.9709 122.632 51.6767 124.978 51.6767C127.22 51.6767 128.159 53.3713 128.159 55.3265C128.159 59.211 125.239 61.6616 123.049 61.6616ZM131.47 38.381L129.801 46.8016C129.723 47.1927 129.671 47.7141 129.671 47.7141H129.593C128.445 46.3063 126.125 45.8631 124.405 45.8631C118.304 45.837 112.856 50.8946 112.829 58.5332C112.803 63.8775 115.749 67.3709 120.781 67.397C123.101 67.397 125.291 66.3021 126.699 64.425H126.777C126.777 64.425 126.647 64.9464 126.542 65.5721L126.256 66.9277L132.721 66.9538L138.378 38.4331L131.47 38.381Z" fill="#666C75"/>
<path d="M147.399 61.7135C145.209 61.7135 143.618 60.3058 143.618 57.9073C143.645 54.1532 146.669 51.6766 149.38 51.7026C151.544 51.7026 153.134 53.1886 153.108 55.6392C153.108 59.3672 150.136 61.7135 147.399 61.7135ZM149.484 45.9411C143.045 45.9151 136.658 50.9727 136.632 58.1941C136.606 63.8252 141.064 67.4229 147.268 67.449C153.655 67.475 160.095 62.4696 160.121 55.196C160.121 49.617 155.663 45.9672 149.484 45.9411Z" fill="#666C75"/>
<path d="M168.15 52.6674C168.15 51.9113 169.402 51.5985 170.392 51.5985C173.469 51.5985 175.189 53.0845 175.189 53.0845L178.161 48.3919C178.161 48.3919 175.372 46.0195 170.418 46.0195C166.039 45.9934 161.789 48.6526 161.763 52.6674C161.737 58.7417 169.897 59.0806 169.871 60.9316C169.871 61.6615 168.698 61.9744 167.629 61.9744C164.553 61.9744 162.441 60.1234 162.441 60.1234L159 64.5553C159 64.5553 162.493 67.5534 167.603 67.5795C172.765 67.6055 176.284 64.9724 176.284 60.9837C176.336 54.753 168.15 54.2837 168.15 52.6674Z" fill="#666C75"/>
<path d="M188.276 61.844C186.086 61.844 184.496 60.4362 184.496 58.0377C184.522 54.2836 187.546 51.807 190.258 51.8331C192.421 51.8331 194.012 53.3191 193.986 55.7696C194.012 59.5237 191.04 61.87 188.276 61.844ZM190.362 46.0976C183.923 46.0716 177.535 51.1292 177.509 58.3506C177.483 63.9817 181.941 67.5794 188.146 67.6055C194.533 67.6315 200.972 62.6261 200.999 55.3525C201.025 49.7474 196.567 46.0976 190.362 46.0976Z" fill="#666C75"/>
<path d="M79.3556 40.4925L71.0654 32.854L70.2572 36.947L59.1774 36.8949C53.7809 36.8688 48.0455 40.1536 48.0194 46.2801C47.9933 51.4941 52.321 53.7883 55.4754 55.4829C57.2221 56.4214 58.7603 57.2295 58.7603 58.142C58.7603 60.2537 55.8144 60.2798 55.684 60.2798L46.1163 60.2537L44.6042 67.5794L55.5276 67.6055C61.7583 67.6315 66.6595 63.4864 66.6856 58.1681C66.7117 52.928 62.384 50.686 59.2556 49.0435C57.4568 48.105 55.8926 47.2968 55.8926 46.3062C55.8926 44.7159 58.0303 44.2206 59.047 44.2206L68.8233 44.2466L68.0412 48.2093L79.3556 40.4925Z" fill="#666C75"/>
</svg>
