<svg width="155" height="41" viewBox="0 0 155 41" fill="none" xmlns="http://www.w3.org/2000/svg">
<path d="M155 15.1577V18.072H151.399V28.1715C151.399 28.8303 151.533 29.2881 151.801 29.545C152.08 29.8018 152.572 29.9302 153.275 29.9302H155V32.8445H152.773C149.501 32.8445 147.865 31.4376 147.865 28.6238V10.334H151.399V15.1577H155Z" fill="white"/>
<path d="M139.021 33.2601C137.68 33.2601 136.471 33.0439 135.396 32.6117C134.321 32.1794 133.451 31.5365 132.786 30.683C132.132 29.8295 131.766 28.7709 131.688 27.5073H135.147C135.346 29.4803 136.615 30.4668 138.954 30.4668C140.063 30.4668 140.938 30.2396 141.581 29.7851C142.235 29.3307 142.562 28.7543 142.562 28.056C142.562 27.4574 142.33 26.9808 141.864 26.6261C141.398 26.2603 140.789 25.9943 140.035 25.828L137.125 25.1796C133.767 24.448 132.088 22.7742 132.088 20.1583C132.088 18.6065 132.703 17.3429 133.933 16.3674C135.175 15.392 136.798 14.9043 138.805 14.9043C140.789 14.9043 142.418 15.4197 143.693 16.4506C144.979 17.4703 145.644 18.867 145.688 20.6405H142.33C142.318 19.787 141.997 19.0831 141.365 18.5289C140.733 17.9636 139.896 17.6809 138.855 17.6809C137.857 17.6809 137.064 17.9137 136.477 18.3793C135.889 18.8448 135.596 19.4157 135.596 20.0918C135.596 20.6904 135.817 21.1725 136.261 21.5383C136.715 21.9041 137.336 22.1757 138.123 22.353L141.116 23.0181C142.823 23.395 144.081 23.9769 144.89 24.7639C145.699 25.5509 146.104 26.5817 146.104 27.8564C146.104 28.976 145.793 29.9403 145.173 30.7495C144.563 31.5475 143.726 32.1683 142.662 32.6117C141.598 33.0439 140.384 33.2601 139.021 33.2601Z" fill="white"/>
<path d="M121.143 33.1288C119.379 33.1288 117.916 32.6822 116.755 31.7889C115.593 30.8845 115.013 29.5501 115.013 27.7859C115.013 26.446 115.342 25.4187 116.001 24.7041C116.671 23.9783 117.536 23.4591 118.597 23.1465C119.669 22.8338 120.802 22.6049 121.997 22.4598C123.102 22.3258 123.979 22.2141 124.627 22.1248C125.274 22.0355 125.732 21.9015 126 21.7228C126.279 21.5442 126.419 21.2371 126.419 20.8016V20.6509C126.419 19.7911 126.106 19.0877 125.481 18.5405C124.855 17.9822 123.979 17.7031 122.851 17.7031C121.723 17.7031 120.802 17.9767 120.088 18.5238C119.373 19.0598 118.982 19.7353 118.915 20.5504H115.448C115.526 18.8643 116.235 17.4854 117.575 16.4134C118.915 15.3415 120.691 14.8055 122.901 14.8055C125.079 14.8055 126.793 15.3415 128.043 16.4134C129.294 17.4854 129.919 18.9202 129.919 20.7179V32.8441H126.435V30.3317H126.368C126 31.0464 125.414 31.694 124.61 32.2746C123.817 32.8441 122.661 33.1288 121.143 33.1288ZM121.863 30.2815C123.426 30.2815 124.576 29.8795 125.313 29.0756C126.061 28.2605 126.435 27.3114 126.435 26.2283V24.1514C126.201 24.3412 125.671 24.5143 124.844 24.6706C124.018 24.8158 123.136 24.9554 122.198 25.0893C121.227 25.2345 120.372 25.5081 119.635 25.91C118.898 26.312 118.53 26.9596 118.53 27.8529C118.53 28.6122 118.826 29.2096 119.418 29.645C120.021 30.0693 120.836 30.2815 121.863 30.2815Z" fill="white"/>
<path d="M105.826 33.2456C104.14 33.2456 102.661 32.8548 101.388 32.0732C100.126 31.2916 99.1434 30.2085 98.4399 28.8239C97.7365 27.4282 97.3848 25.8315 97.3848 24.0338C97.3848 22.2137 97.7365 20.6058 98.4399 19.2101C99.1546 17.8143 100.143 16.7257 101.404 15.9441C102.666 15.1513 104.14 14.7549 105.826 14.7549C107.233 14.7549 108.489 15.034 109.595 15.5923C110.711 16.1395 111.616 16.8987 112.308 17.8702C113 18.8416 113.419 19.9526 113.564 21.2032H110.047C109.868 20.2094 109.422 19.3943 108.707 18.7579C107.992 18.1214 107.038 17.8032 105.843 17.8032C104.313 17.8032 103.118 18.3671 102.259 19.4948C101.399 20.6226 100.969 22.1356 100.969 24.0338C100.969 25.9096 101.399 27.4059 102.259 28.5225C103.118 29.6391 104.313 30.1974 105.843 30.1974C107.06 30.1974 107.998 29.8903 108.657 29.2762C109.316 28.6509 109.762 27.819 109.997 26.7806H113.564C113.43 28.0088 113.017 29.1143 112.325 30.0969C111.632 31.0683 110.728 31.8387 109.611 32.4082C108.495 32.9665 107.233 33.2456 105.826 33.2456Z" fill="white"/>
<path d="M86.6632 33.1953C85.1223 33.1953 83.7768 32.81 82.6267 32.0396C81.4766 31.258 80.5833 30.1805 79.9469 28.807C79.3104 27.4225 78.9922 25.8202 78.9922 24.0001C78.9922 22.1801 79.3104 20.5833 79.9469 19.2099C80.5945 17.8254 81.4934 16.7479 82.6434 15.9774C83.7935 15.1958 85.1279 14.805 86.6464 14.805C87.7965 14.805 88.8461 15.0451 89.7952 15.5252C90.7443 16.0053 91.5036 16.7367 92.0731 17.7193H92.1066V7.8877H95.6406V32.8435H92.1736V30.147H92.1401C91.5483 31.1742 90.7722 31.9391 89.812 32.4416C88.8629 32.944 87.8133 33.1953 86.6632 33.1953ZM87.3834 30.147C88.8908 30.147 90.0911 29.5887 90.9844 28.4721C91.8888 27.3443 92.341 25.8537 92.341 24.0001C92.341 22.1354 91.8888 20.6448 90.9844 19.5282C90.0911 18.4004 88.8908 17.8365 87.3834 17.8365C85.9541 17.8365 84.7929 18.3669 83.8996 19.4277C83.0175 20.4773 82.5764 22.0014 82.5764 24.0001C82.5764 25.9988 83.0175 27.523 83.8996 28.5726C84.7929 29.6222 85.9541 30.147 87.3834 30.147Z" fill="white"/>
<path d="M76.8895 7.8877V32.8435H73.3555V7.8877H76.8895Z" fill="white"/>
<path d="M63.137 33.2456C61.451 33.2456 59.9715 32.8548 58.6986 32.0732C57.4257 31.2916 56.4319 30.2085 55.7173 28.8239C55.0138 27.4394 54.6621 25.8426 54.6621 24.0338C54.6621 22.2026 55.0138 20.5947 55.7173 19.2101C56.4319 17.8143 57.4257 16.7257 58.6986 15.9441C59.9715 15.1513 61.451 14.7549 63.137 14.7549C64.8231 14.7549 66.297 15.1513 67.5587 15.9441C68.8317 16.7257 69.8198 17.8143 70.5233 19.2101C71.2379 20.5947 71.5952 22.2026 71.5952 24.0338C71.5952 25.8426 71.2379 27.4394 70.5233 28.8239C69.8198 30.2085 68.8317 31.2916 67.5587 32.0732C66.297 32.8548 64.8231 33.2456 63.137 33.2456ZM63.137 30.1974C64.6556 30.1974 65.8504 29.6391 66.7213 28.5225C67.5922 27.4059 68.0277 25.9096 68.0277 24.0338C68.0277 22.1356 67.5867 20.6226 66.7046 19.4948C65.8336 18.3671 64.6444 17.8032 63.137 17.8032C61.6296 17.8032 60.4349 18.3671 59.5528 19.4948C58.6818 20.6114 58.2464 22.1244 58.2464 24.0338C58.2464 25.9208 58.6818 27.4226 59.5528 28.5392C60.4237 29.6446 61.6185 30.1974 63.137 30.1974Z" fill="white"/>
<path d="M41.7896 33.2461C39.6011 33.2461 37.6471 32.699 35.9275 31.6047C34.2191 30.5105 32.8681 28.9975 31.8743 27.0658C30.8917 25.1341 30.4004 22.9065 30.4004 20.383C30.4004 17.8148 30.8973 15.5649 31.891 13.6332C32.8848 11.7015 34.247 10.1941 35.9778 9.11097C37.7197 8.02788 39.7072 7.48633 41.9404 7.48633C43.7492 7.48633 45.4018 7.84922 46.898 8.57501C48.4054 9.30079 49.6504 10.3057 50.633 11.5898C51.6268 12.8739 52.2521 14.3645 52.5089 16.0618H48.7404C48.3943 14.5209 47.6127 13.2759 46.3956 12.3268C45.1785 11.3665 43.7102 10.8864 41.9906 10.8864C40.4162 10.8864 39.0372 11.2827 37.8536 12.0755C36.6812 12.8683 35.7656 13.9793 35.1068 15.4085C34.4592 16.8266 34.1354 18.4848 34.1354 20.383C34.1354 22.27 34.4592 23.9281 35.1068 25.3574C35.7656 26.7755 36.6812 27.8809 37.8536 28.6737C39.0372 29.4553 40.4218 29.8461 42.0074 29.8461C43.2803 29.8461 44.4415 29.5781 45.4911 29.0421C46.5407 28.5062 47.3838 27.7413 48.0202 26.7475C48.6678 25.7538 49.014 24.5702 49.0586 23.1968H42.8281V20.0982H52.6931V32.8441H49.9631L49.5611 29.4609C48.7907 30.5886 47.7466 31.5042 46.4291 32.2077C45.1115 32.9 43.565 33.2461 41.7896 33.2461Z" fill="white"/>
<path fill-rule="evenodd" clip-rule="evenodd" d="M17.6553 20.1775C17.6553 10.4267 9.75075 2.52219 0 2.52219V0C11.1437 0 20.1775 9.03377 20.1775 20.1775C20.1775 31.3212 11.1437 40.355 0 40.355V37.8328C9.75075 37.8328 17.6553 29.9282 17.6553 20.1775Z" fill="#FF4200"/>
<path fill-rule="evenodd" clip-rule="evenodd" d="M11.256 20.1775C11.256 13.961 6.21654 8.92148 0 8.92148V6.42014C7.59799 6.42014 13.7574 12.5795 13.7574 20.1775C13.7574 27.7755 7.59799 33.9349 0 33.9349V31.4336C6.21654 31.4336 11.256 26.3941 11.256 20.1775Z" fill="#FF4200"/>
</svg>
